<svg width="40" height="41" viewBox="0 0 40 41" fill="none" xmlns="http://www.w3.org/2000/svg">
<mask id="mask0_202_2691" style="mask-type:alpha" maskUnits="userSpaceOnUse" x="2" y="3" width="35" height="36">
<path d="M36.6313 21.856H35.0313V7.29472C35.0313 5.98884 33.9393 4.84347 32.6756 4.84347H6.51837C5.24329 4.84347 4.11875 6.00074 4.11875 7.29472V30.9478C4.11875 32.2006 5.20248 33.2435 6.51837 33.2435H13.8375V34.8435H6.51837C4.3323 34.8435 2.51875 33.0983 2.51875 30.9478V7.29472C2.51875 5.1272 4.3492 3.24347 6.51837 3.24347H32.6756C34.8405 3.24347 36.6313 5.12183 36.6313 7.29472V21.856Z" fill="url(#paint0_linear_202_2691)"/>
<path fill-rule="evenodd" clip-rule="evenodd" d="M21.6438 15.2935V27.608C20.4326 26.2353 18.957 25.4774 17.5491 25.48C15.2829 25.4844 14.2857 27.4878 15.7158 29.6296L21.5738 38.2434L21.8119 38.5935H34.6052L36.1876 30.0491L36.3422 29.3969C36.7355 27.7342 35.7349 26.065 34.0748 25.5922L27.0688 23.6045V15.2935C27.0688 13.8125 25.8516 12.6185 24.3563 12.6185C22.8609 12.6185 21.6438 13.8125 21.6438 15.2935ZM34.785 29.0293L34.6223 29.72L33.2744 36.9935H22.6587L17.0426 28.7355C16.3114 27.6403 16.5894 27.0819 17.5521 27.08C18.9615 27.0773 20.6574 28.3413 21.7157 30.6645L23.2438 34.0186V15.2935C23.2438 14.7031 23.7377 14.2185 24.3563 14.2185C24.9748 14.2185 25.4688 14.7031 25.4688 15.2935V24.8137L33.6373 27.1312C34.4802 27.3713 34.98 28.205 34.785 29.0293Z" fill="url(#paint1_linear_202_2691)"/>
<path d="M3.31876 10.4685V8.86847H35.8313V10.4685H3.31876Z" fill="url(#paint2_linear_202_2691)"/>
</mask>
<g mask="url(#mask0_202_2691)">
<rect y="0.730957" width="40" height="40" rx="2" fill="#4CB372"/>
</g>
<defs>
<linearGradient id="paint0_linear_202_2691" x1="3.44948" y1="34.0745" x2="35.9018" y2="34.0745" gradientUnits="userSpaceOnUse">
<stop stop-color="#F15A29"/>
<stop offset="1" stop-color="#EC008C"/>
</linearGradient>
<linearGradient id="paint1_linear_202_2691" x1="0.860231" y1="48.535" x2="38.6007" y2="48.535" gradientUnits="userSpaceOnUse">
<stop stop-color="#F15A29"/>
<stop offset="1" stop-color="#EC008C"/>
</linearGradient>
<linearGradient id="paint2_linear_202_2691" x1="4.20583" y1="10.4295" x2="35.136" y2="10.4295" gradientUnits="userSpaceOnUse">
<stop stop-color="#F15A29"/>
<stop offset="1" stop-color="#EC008C"/>
</linearGradient>
</defs>
</svg>
