<svg width="186" height="34" viewBox="0 0 186 34" fill="none" xmlns="http://www.w3.org/2000/svg">
<path fill-rule="evenodd" clip-rule="evenodd" d="M52.7799 20.3916L48.033 26.0606C51.4102 29.028 56.2694 30.5499 61.6586 30.5274C68.7903 30.5274 73.38 27.1143 73.38 21.5218V21.4453C73.38 16.0779 68.8262 14.1012 62.0358 12.8449C59.229 12.3136 58.5059 11.8588 58.5059 11.1339V11.0753C58.5059 10.4224 59.1167 9.97214 60.4415 9.97214C63.3032 10.0054 66.0851 10.922 68.4085 12.5973L72.7378 6.58604C69.6615 4.15452 65.8666 2.93427 60.7469 2.93427C53.4221 2.93427 49.4791 6.8517 49.4791 11.9129V11.9894C49.4791 17.6134 54.711 19.329 60.6706 20.5447C63.5178 21.1166 64.3487 21.5353 64.3487 22.2963V22.3683C64.3487 23.0933 63.666 23.5121 62.0718 23.5121C58.7161 23.5274 55.4494 22.4304 52.7799 20.3916ZM84.3074 3.42517H75.4288V30.0457H84.3074V24.3857L86.5844 21.612L91.7804 30.0547H102.352L92.9211 14.9884L102.186 3.41617H91.8568L84.3074 13.3854V3.42517ZM103.959 3.42512H112.838V30.0457H103.959V3.42512ZM124.07 3.42512H115.192V30.0457H136.555V22.445H124.07V3.42512ZM138.486 3.42512H147.365V22.445H159.85V30.0457H138.486V3.42512ZM165.081 20.3916L160.335 26.0607C163.716 29.028 168.575 30.55 173.96 30.5274C181.092 30.5274 185.682 27.1143 185.682 21.5218V21.4453C185.682 16.078 181.128 14.1012 174.337 12.8449C171.531 12.3136 170.807 11.8588 170.807 11.1339V11.0753C170.807 10.4224 171.396 9.97215 172.743 9.97215C175.605 10.0054 178.387 10.922 180.71 12.5973L185.039 6.58605C181.963 4.15454 178.168 2.93428 173.048 2.93428C165.724 2.93428 161.776 6.85172 161.776 11.9129V11.9894C161.776 17.6134 167.017 19.329 172.972 20.5447C175.819 21.1166 176.65 21.5353 176.65 22.2963V22.3684C176.65 23.0933 175.968 23.5121 174.373 23.5121C171.018 23.5274 167.751 22.4304 165.081 20.3916Z" fill="black"/>
<path d="M0 0.379333V33.0826H32.7033V0.379333H0ZM10.2198 13.4032L16.0274 16.731L10.2198 20.0902V13.4032ZM10.2198 25.7758V22.5019L20.2136 16.731L10.2198 10.9601V7.70861L25.846 16.731L10.2198 25.7758Z" fill="url(#paint0_linear_202_2683)"/>
<defs>
<linearGradient id="paint0_linear_202_2683" x1="46.6407" y1="48.8954" x2="-32.9522" y2="-35.6492" gradientUnits="userSpaceOnUse">
<stop offset="0.03" stop-color="#F05A28"/>
<stop offset="0.93" stop-color="#EB008B"/>
</linearGradient>
</defs>
</svg>
